<svg width="124" height="124" viewBox="0 0 124 124" fill="none" xmlns="http://www.w3.org/2000/svg">
<path fill-rule="evenodd" clip-rule="evenodd" d="M61.8086 0C27.6727 0 0 27.6727 0 61.8086C0 95.9446 27.6727 123.617 61.8086 123.617C95.9446 123.617 123.617 95.9446 123.617 61.8086C123.617 27.6727 95.9446 0 61.8086 0ZM13.8596 61.8086C13.8596 35.3271 35.3271 13.8596 61.8086 13.8596C88.2901 13.8596 109.758 35.3271 109.758 61.8086C109.758 85.9762 91.8778 105.968 68.6245 109.277V98.7003L80.9315 94.157C88.044 91.5314 92.7676 84.7525 92.7676 77.1707V56.3457C92.7676 52.5184 89.6651 49.4159 85.8379 49.4159C82.0107 49.4159 78.9081 52.5184 78.9081 56.3457V77.1707C78.9081 78.9491 77.8001 80.5393 76.1317 81.1551L68.6245 83.9265V29.074C68.6245 25.2468 65.5219 22.1442 61.6947 22.1442C57.8675 22.1442 54.7649 25.2468 54.7649 29.074V58.8075L47.482 56.1189C45.8136 55.503 44.7056 53.9129 44.7056 52.1345V43.1571C44.7056 39.3299 41.603 36.2273 37.7758 36.2273C33.9486 36.2273 30.846 39.3299 30.846 43.1571V52.1345C30.846 59.7162 35.5696 66.4951 42.6822 69.1208L54.7649 73.5813V109.244C31.6227 105.837 13.8596 85.8973 13.8596 61.8086Z" fill="#DE9931"/>
</svg>
