<svg width="123" height="124" viewBox="0 0 123 124" fill="none" xmlns="http://www.w3.org/2000/svg">
<path fill-rule="evenodd" clip-rule="evenodd" d="M57.2323 82.8722L57.1814 123L65.6642 123.011L65.7153 82.696L81.1896 119.922L89.0225 116.666L73.6545 79.6957L101.929 108.042L107.935 102.052L79.539 73.5834L116.677 88.9962L119.928 81.1613L82.7858 65.7466H123V57.2638H82.8821L119.963 41.9496L116.724 34.1092L79.8024 49.358L108.194 21.257L102.227 15.228L73.4829 43.6777L88.9723 6.31897L81.1364 3.07009L65.7692 40.1339L65.8201 0.0107505L57.3373 0L57.2862 40.3184L41.8104 3.08824L33.9775 6.34424L49.3441 43.3118L21.0716 14.9674L15.0658 20.958L43.4624 49.4268L6.32341 34.0136L3.07184 41.8484L40.2162 57.2638H0V65.7466H40.1208L3.03861 81.0616L6.2767 88.902L43.197 73.6538L14.8065 101.754L20.7738 107.783L49.5161 79.3347L34.0275 116.691L41.8635 119.94L57.2323 82.8722Z" fill="#8FD5F5"/>
</svg>
