<svg width="140" height="140" viewBox="0 0 140 140" fill="none" xmlns="http://www.w3.org/2000/svg">
<rect width="140" height="140" rx="25.2326" fill="#EB0B2B"/>
<path d="M55.2542 38.4016C55.2542 37.6188 55.8371 36.9585 56.6139 36.8614L65.927 35.6973C66.8535 35.5815 67.6717 36.3038 67.6717 37.2375V67.8691C67.6717 68.8027 66.8535 69.5251 65.927 69.4093L56.6139 68.2451C55.8371 68.148 55.2542 67.4877 55.2542 66.7049V38.4016Z" fill="black"/>
<path d="M36.6279 42.2821C36.6279 41.4993 37.2108 40.839 37.9876 40.7419L47.3007 39.5777C48.2272 39.4619 49.0455 40.1843 49.0455 41.118V65.5408C49.0455 66.4744 48.2272 67.1968 47.3007 67.081L37.9876 65.9169C37.2108 65.8198 36.6279 65.1595 36.6279 64.3766V42.2821Z" fill="black"/>
<path d="M85.1223 38.2896C85.8133 38.4624 86.298 39.0832 86.298 39.7955V52.7352C86.298 53.518 85.7151 54.1783 84.9384 54.2754L75.6252 55.4396C74.6988 55.5554 73.8805 54.833 73.8805 53.8994V37.4672C73.8805 36.4574 74.8295 35.7164 75.8092 35.9613L85.1223 38.2896Z" fill="black"/>
<path d="M103.372 43.676C103.372 42.9637 102.887 42.3429 102.196 42.1701L92.8832 39.8418C91.9036 39.5969 90.9546 40.3379 90.9546 41.3477V53.1233C90.9546 54.0569 91.7729 54.7793 92.6993 54.6635L102.012 53.4993C102.789 53.4022 103.372 52.7419 103.372 51.9591V43.676Z" fill="black"/>
<path d="M103.372 59.5381L73.1044 60.3142C73.5423 66.0073 78.2896 70.4035 83.9995 70.4035H90.9546V77.0093L36.6279 71.9557V104.315L103.372 99.6588V59.5381Z" fill="black"/>
</svg>
