<svg width="90" height="90" viewBox="0 0 90 90" fill="none" xmlns="http://www.w3.org/2000/svg">
<g clip-path="url(#clip0_2335_11163)">
<path d="M1.875 39.375L17.1464 42.4293C19.098 42.8196 20.4048 44.6665 20.1233 46.6368L17.335 66.1553C17.071 68.0028 15.4888 69.375 13.6226 69.375H1.875V39.375Z" stroke="white" stroke-width="3.86866"/>
<path d="M20.625 46.875C20.625 46.875 25.9375 45 31.875 45C37.8125 45 41.2092 49.095 48.75 50.625C56.8359 52.2656 61.875 54.1406 61.875 58.125C61.875 62.1094 55.7812 64.1016 35.625 58.125" stroke="white" stroke-width="3.86866"/>
<path d="M61.875 60C61.875 60 74.0625 56.25 78.75 56.25C83.4375 56.25 88.125 58.125 88.125 61.875C81.7187 64.6875 59.375 76.875 50.625 76.875C41.875 76.875 18.75 65.625 18.75 65.625" stroke="white" stroke-width="3.86866"/>
<path d="M69.375 35.625C75.5882 35.625 80.625 30.5882 80.625 24.375C80.625 18.1618 75.5882 13.125 69.375 13.125C63.1618 13.125 58.125 18.1618 58.125 24.375C58.125 30.5882 63.1618 35.625 69.375 35.625Z" stroke="#AA00FF" stroke-width="3.86866"/>
<path d="M58.7931 20.6923C58.5677 20.6788 58.3539 20.625 58.125 20.625C51.9118 20.625 46.875 25.6618 46.875 31.875C46.875 38.0882 51.9118 43.125 58.125 43.125C63.0409 43.125 67.1759 39.9518 68.7069 35.5577" stroke="#AA00FF" stroke-width="3.86866"/>
</g>
<defs>
<clipPath id="clip0_2335_11163">
<rect width="90" height="90" fill="white"/>
</clipPath>
</defs>
</svg>
