<svg width="94" height="94" viewBox="0 0 94 94" fill="none" xmlns="http://www.w3.org/2000/svg">
<path d="M47.4994 76.6432C64.7007 76.6432 78.6452 62.6988 78.6452 45.4974C78.6452 28.296 64.7007 14.3516 47.4994 14.3516C30.298 14.3516 16.3535 28.296 16.3535 45.4974C16.3535 62.6988 30.298 76.6432 47.4994 76.6432Z" stroke="white" stroke-width="3.86866"/>
<path d="M16.3535 44.1406C22.1087 44.1406 22.6447 49.0777 24.4785 50.9115C26.3123 52.7452 29.8952 51.1372 29.8952 53.6198C29.8952 56.1024 27.1868 57.1745 27.1868 60.3906C27.1868 63.6068 27.1868 69.1121 27.1868 69.1121" stroke="white" stroke-width="3.86866"/>
<path d="M76.2471 33.4921C76.2471 33.4921 70.796 40.3566 69.1668 38.7273C67.5376 37.0981 63.8348 35.1727 65.1043 38.7273C66.3738 42.282 70.521 45.4982 70.521 45.4982C70.521 45.4982 66.4585 49.9839 66.4585 52.269C66.4585 54.5542 63.7501 54.004 63.7501 57.6857C63.7501 61.3673 56.9793 63.1023 56.9793 63.1023C56.9793 63.1023 54.271 60.0978 54.271 57.6857C54.271 55.2736 55.6251 55.8237 55.6251 53.6232C55.6251 51.4227 54.271 50.6186 54.271 48.2065C54.271 45.7944 46.6961 45.4982 44.7918 45.4982C42.8875 45.4982 40.7293 44.6518 40.7293 42.7898C40.7293 40.9279 39.8618 38.2407 42.0835 36.019C44.3052 33.7973 47.8387 33.3107 50.2085 33.3107C53.8478 33.3107 52.8322 34.6649 56.9793 34.6649C61.1264 34.6649 65.1043 35.215 65.1043 31.9565C65.1043 28.6981 58.5027 27.894 54.271 27.894C50.0392 27.894 48.1349 30.6024 44.7918 30.6024C42.9721 28.7827 45.8498 25.355 48.8543 23.8315C51.8589 22.3081 51.7297 21.1232 50.2085 19.769C52.1339 17.8436 60.7852 17.3203 60.7852 17.3203" stroke="white" stroke-width="3.86866"/>
<path d="M91.9655 14.8594L87.6801 23.4301L79.1094 19.1447" stroke="#AA00FF" stroke-width="3.86866"/>
<path d="M66.2539 2C78.0888 2.03771 86.2078 12.1778 87.6808 23.4269" stroke="#AA00FF" stroke-width="3.86866"/>
<path d="M2 79.1254L6.28537 70.5547L14.8561 74.8401" stroke="#AA00FF" stroke-width="3.86866"/>
<path d="M27.712 91.9816C15.8772 91.9438 7.75809 81.8038 6.28516 70.5547" stroke="#AA00FF" stroke-width="3.86866"/>
</svg>
