<svg width="90" height="90" viewBox="0 0 90 90" fill="none" xmlns="http://www.w3.org/2000/svg">
<g clip-path="url(#clip0_2335_11135)">
<path d="M58.2172 50.625H7.5C4.3934 50.625 1.875 48.1066 1.875 45V26.25C1.875 23.1434 4.3934 20.625 7.5 20.625H75C78.1066 20.625 80.625 23.1434 80.625 26.25V34.3207" stroke="white" stroke-width="3.86866"/>
<path d="M41.0605 27.4688V43.7761" stroke="white" stroke-width="3.86866"/>
<path d="M48.1226 31.5469L34 39.7005" stroke="white" stroke-width="3.86866"/>
<path d="M34 31.5469L48.1226 39.7005" stroke="white" stroke-width="3.86866"/>
<path d="M18.0605 27.4688V43.7761" stroke="white" stroke-width="3.86866"/>
<path d="M25.1226 31.5469L11 39.7005" stroke="white" stroke-width="3.86866"/>
<path d="M11 31.5469L25.1226 39.7005" stroke="white" stroke-width="3.86866"/>
<path d="M73.125 69.375C86.25 63.2609 88.125 59.0829 88.125 46.5489V36.7663L73.125 31.875L58.125 36.7663V46.5489C58.125 59.0829 60 63.2609 73.125 69.375Z" stroke="#AA00FF" stroke-width="3.86866"/>
<path d="M80.625 50.625C80.3613 56.0372 79.0288 58.0112 73.125 61.0405V50.6254L80.625 50.625Z" stroke="#AA00FF" stroke-width="3.86866" stroke-linejoin="round"/>
<path d="M65.625 50.6274V42.2119L73.125 39.7656V50.6279L65.625 50.6274Z" stroke="#AA00FF" stroke-width="3.86866" stroke-linejoin="round"/>
</g>
<defs>
<clipPath id="clip0_2335_11135">
<rect width="90" height="90" fill="white"/>
</clipPath>
</defs>
</svg>
