<svg width="82" height="82" viewBox="0 0 82 82" fill="none" xmlns="http://www.w3.org/2000/svg">
<g clip-path="url(#clip0_2335_11125)">
<path d="M36.9004 50.5703H61.5004" stroke="white" stroke-width="3.86866"/>
<path d="M20.5 17.7656H42.3667" stroke="white" stroke-width="3.86866"/>
<path d="M20.5 34.1641H61.5" stroke="white" stroke-width="3.86866"/>
<path d="M20.5 42.3672H61.5" stroke="white" stroke-width="3.86866"/>
<path d="M20.5 25.9688H61.5" stroke="white" stroke-width="3.86866"/>
<path d="M20.5 72.4383C23.575 70.1965 27.4188 66.9267 27.3333 62.8701C27.2727 59.9885 26.539 58.8144 24.6 58.774C22.55 58.7313 21.8156 60.9488 21.8667 62.8701C21.9948 67.6953 26.3937 72.4383 28.7 72.4383C31.0062 72.4383 31.7018 66.9726 32.8 66.9726C33.8982 66.9726 35.2527 72.4383 36.9 72.4383C38.5473 72.4383 45.1 64.2397 45.1 64.2397" stroke="#AA00FF" stroke-width="3.86866" stroke-linejoin="round"/>
<path d="M12.3008 5.46719V76.5339C12.3008 78.7982 14.1364 80.6339 16.4008 80.6339H65.6008C67.8651 80.6339 69.7008 78.7982 69.7008 76.5339V17.7672L53.3008 1.36719H16.4008C14.1364 1.36719 12.3008 3.20282 12.3008 5.46719Z" stroke="white" stroke-width="3.86866"/>
<path d="M53.3008 1.36719V13.6672C53.3008 15.9316 55.1364 17.7672 57.4008 17.7672H69.7008" stroke="white" stroke-width="3.86866"/>
</g>
<defs>
<clipPath id="clip0_2335_11125">
<rect width="82" height="82" fill="white"/>
</clipPath>
</defs>
</svg>
