<svg width="210" height="223" viewBox="0 0 210 223" fill="none" xmlns="http://www.w3.org/2000/svg">
<path fill-rule="evenodd" clip-rule="evenodd" d="M30.1789 0.578125H180.185L209.967 102.268L159.135 163.075L144.996 160.234L104.721 149.124L64.5386 160.209L51.329 163.195L0.397217 102.268L30.1789 0.578125ZM112.779 134.79L148.695 144.697L152.975 145.557L192.252 98.5723L168.228 16.5396H42.1363L18.1116 98.5723L57.321 145.476L60.6546 144.722L96.817 134.747L96.9855 121.473L74.459 109.909L62.5321 71.5119L46.6266 64.5176L53.0517 49.9064L75.6171 59.8293L87.7133 98.7711L104.984 107.637L121.713 98.8194L133.825 59.8293L156.39 49.9064L162.815 64.5176L146.91 71.512L134.998 109.86L112.948 121.483L112.779 134.79ZM69.7992 185.29L82.0453 175.052L105.182 202.729L128.28 175.098L140.526 185.335L105.182 227.616L69.7992 185.29Z" fill="white"/>
</svg>
